<svg viewBox="0 0 512 512" xmlns="http://www.w3.org/2000/svg">
  <path d="M259 2.4a258 258 0 0 0-257.4 257C1.3 399.2 116.2 514.3 258 514.5c141.6.3 256-114.9 256-253.6A257.3 257.3 0 0 0 259 2.4zm44 477.1c-14.4 3-29.7 5-45 5s-30.6-2-45-5v-70.2c0-16.8 4.5-22.8 10.5-30.9 3-3.5 4.9-6.6 19.5-27.3l-24-3.6c-59.4-8.7-82.8-39.6-92.1-63.6a102 102 0 0 1 15.9-97.8 18 18 0 0 0 3.6-17.4 96.2 96.2 0 0 1-.9-44.1c16 2.3 32.3 13.7 45.9 21.9 6.3 3.7 9.6 2.7 12.6 3 11-2.3 28.6-7.8 54.3-7.8 16.2 0 33.3 3.8 50.1 7.2 3 0 7.8 2.5 16.2-2.4 14.3-8.7 30-19.7 45.9-21.9 3 9 4.5 30.3-.9 44.1-2 6-.4 12.6 3.6 17.4 22 27.5 28.4 64.5 16.8 97.8-10.2 24-33.6 54.9-93 63.6l-23.1 3.6c14.7 21.4 15.7 24.2 18.6 27.3 6 8.1 10.5 14.1 10.5 30.9zm30-8.7v-61.5a72 72 0 0 0-8.4-36.9c45.6-12.3 78-37.7 92.4-78 15.4-41.3 9-87.5-17.1-123 4.5-20.1 4.5-52.2-6.3-67.2-3.9-6.4-12-10-19.8-9.6h-.3c-23.3.7-41.6 13-61.2 24.3-18-4-36.3-7.2-54.6-7.2-18 0-36 2.4-53.3 7.2-21-12.5-39.2-23.7-63.1-24.7-7.5 0-14.1 3.4-18.9 10-10.8 15-10.8 47.1-5.4 67.2a130 130 0 0 0-18 123c14.4 39.8 46.8 65.7 92.4 78a65 65 0 0 0-7.8 26.3 40 40 0 0 1-24.7 2c-8.1-3-15-9-19.2-16.5-12-20-32.2-36.3-55.3-34l2.8 29.7c10.5-1 21.2 10.3 26.7 19.7 7.9 14.3 21 25 36.5 29.9 11 3.1 21.8 3.4 32.6.9v40.4A226 226 0 0 1 32 259.5c0-124.7 101.8-227.3 226-227s226 102.3 226 227.3c0 97-63.7 180.4-151 211zm0 0" fill="#f5f1e3"/>
</svg>
