<svg viewBox="0 0 512 512" xmlns="http://www.w3.org/2000/svg">
  <path d="M437 .8L75 .1A74.7 74.7 0 0 0-.1 75l-.7 362A75.5 75.5 0 0 0 75 512.1l362 .7c41.4 0 75-34.4 75-75v-362c0-42.2-33.6-75-75-75zm45 437c0 24-20.2 45-45 45l-362-.7c-24.8.7-45-20.4-45-44.7v-362a45.6 45.6 0 0 1 45-45.3l362 .6c24.8 0 45 19.4 45 45zm0 0" fill="var(--black)"/>
  <path d="M91 422.2l90 .1v-212l-90-.1zm30-182h30v152h-30zm0 0" fill="var(--black)"/>
  <path d="M331.9 210.6h-.9a89 89 0 0 0-30 4.5v-4.6l-90-.1v212l90 .1v-107c0-8.8 6.7-15 15-15s15 6.2 15 15v107l90 .2v-118c0-48.6-39.4-94.2-89.1-94.1zm59.1 182h-30v-77c0-25.4-20.2-45-45-45s-44.6 19.6-45 44.9v77h-30v-152h30v29.7l24.8-17.7a52.6 52.6 0 0 1 35.2-11.9h.6c31.4-.3 59.4 29.7 59.4 64zm0 0" fill="var(--black)"/>
  <path d="M91 180.2l90 .1v-90l-90-.1zm30-60h30v30h-30zm0 0" fill="var(--black)"/>
</svg>
