<svg viewBox="0 -45 512 512" xmlns="http://www.w3.org/2000/svg">
  <path d="M194.8 422.7c-85.4 0-153-15-185.3-41l-.6-.4-.6-.6a25.8 25.8 0 0 1-6.9-27.3l.3-1.2c4-10 13.8-16.7 24.4-16.8 21.9 0 41-3 58.4-8-27.7-12.9-47-35.2-58.4-67.5-3.8-10-.5-21.2 8.4-27.2 2.2-2.3 4.6-3.5 7.2-4.3a162.2 162.2 0 0 1-33-59.2l-.3-.8-.1-.7A24.9 24.9 0 0 1 19.8 141c3.7-2.2 7.8-3.3 11.8-3.4-4.3-9.4-6.8-19-9.4-28.7-5.2-27-1-54 13-80.3l3-6.3a17.8 17.8 0 0 1 28.3-4.6l5.8 5.8c46 47.9 86.7 70.6 157.4 86.2 3.2-27.2 15-52.4 34-72.3A118 118 0 0 1 348.3.2h.2c24 0 52.5 13.2 70.1 22.6C433.8 18 452 10.3 470.8 2.2c8.9-4.2 19.7-3 26.7 4.7a23.4 23.4 0 0 1 5 25.7c-1.3 3.8-2.9 7.5-4.6 11.2 2.6 1.2 5 2.8 7 4.8 6 6 8.5 16 6.3 24v.9a99.1 99.1 0 0 1-39.7 54.1c-3 163.3-126 295.1-276.7 295.1zM38.3 365.4c30.5 16.9 88.5 27.3 156.5 27.3 65.4 0 127.2-28.1 173.8-79 47-51.5 73-119.8 73-192.3v-.8c0-6.6 3.6-12.6 9.6-15.7a60.7 60.7 0 0 0 27.4-30.5c-6.4 1-13-1.6-17-7a18.1 18.1 0 0 1 0-21c2.6-2.5 4.6-6.8 6.6-10.5-16.2 6.8-31.7 13-44.5 17-5.5 1.5-11 1-15.4-1.5-24-13-46.2-20.6-59.6-21-49.5.4-89.8 42.8-89.8 94.2 0 5.4-2.3 10.3-6.5 13.7a16.9 16.9 0 0 1-14.6 4c-81.6-16.4-130-40.5-180.3-91a88.6 88.6 0 0 0-5.8 51.8 117.8 117.8 0 0 0 26 50.5c5.1 5.9 5.8 14.3 1.7 21-4.2 6.7-12 9.8-19.6 7.7a81 81 0 0 1-16.5-6.3c10.5 22.8 28.6 44 51.3 59.5a17.7 17.7 0 0 1-11.4 32.2c-8.6.2-16.4-2.3-23.5-5 12.8 25.9 33.1 40.2 64.5 45.6a17.7 17.7 0 0 1 5.2 33.1 217.5 217.5 0 0 1-91.1 24zm0 0" fill="var(--black)"/>
</svg>
